<svg xmlns:dc="http://purl.org/dc/elements/1.1/" xmlns:cc="http://creativecommons.org/ns#" xmlns:rdf="http://www.w3.org/1999/02/22-rdf-syntax-ns#" xmlns:svg="http://www.w3.org/2000/svg" xmlns="http://www.w3.org/2000/svg" xmlns:sodipodi="http://sodipodi.sourceforge.net/DTD/sodipodi-0.dtd" xmlns:inkscape="http://www.inkscape.org/namespaces/inkscape" version="1.1" x="0px" y="0px" viewBox="0 0 100 125"><g transform="translate(0,-952.36218)"><path style="color:#000000;enable-background:accumulate;" d="m 63.761052,972.07106 a 2.0002,2.0002 0 0 1 1.218843,0.49978 l 15.999949,14.0003 a 2.0050545,2.0050545 0 0 1 -2.625134,3.03082 L 62.355364,975.60182 a 2.0002,2.0002 0 0 1 1.405688,-3.53076 z m -29.937656,-1.6e-4 a 2.0002,2.0002 0 0 1 1.156298,3.53139 l -15.999895,13.99978 a 2.0050245,2.0050245 0 1 1 -2.624956,-3.03106 l 15.999773,-14.00029 a 2.0002,2.0002 0 0 1 1.46878,-0.49982 z m 14.843862,6.03131 c 15.464244,-6.6e-4 28.000065,12.53597 27.999993,28.00059 8e-5,15.4633 -12.53585,27.9992 -27.999836,27.9993 -15.464576,0 -28.000202,-12.5362 -28.000284,-27.9995 2.84e-4,-15.46419 12.536725,-28.00071 28.000127,-28.00039 z m 1.43e-4,10.99983 c -1.104543,3.5e-4 -1.999849,0.89567 -1.999554,2.00004 l -3.89e-4,12.99992 -11.000421,0 c -1.10392,3e-4 -1.999547,0.8957 -1.999634,2 -8.3e-5,1.1046 0.895465,2.0005 1.999802,2 l 13.000283,-4e-4 c 1.104719,7e-4 2.000211,-0.8948 1.999947,-1.9995 l -2.93e-4,-14.99949 c -4.3e-5,-1.10489 -0.895199,-2.00062 -1.999741,-2.00057 z" fill="#000000" stroke="none" marker="none" visibility="visible" display="inline" overflow="visible"/></g><text x="0" y="115" fill="#000000" font-size="5px" font-weight="bold" font-family="'Helvetica Neue', Helvetica, Arial-Unicode, Arial, Sans-serif">Created by Aybige</text><text x="0" y="120" fill="#000000" font-size="5px" font-weight="bold" font-family="'Helvetica Neue', Helvetica, Arial-Unicode, Arial, Sans-serif">from the Noun Project</text></svg>